# xmcd CD database file
#
# Track frame offsets:
#	150
#	15151
#	29667
#	55036
#	70840
#	89378
#	102873
#	119707
#	137512
#	159324
#	176840
#	199724
#
# Disc length: 2747 seconds
#
# Revision: 0
# Processed by: cddbd v1.4PL0 Copyright (c) Steve Scherf et al.
# Submitted via: CDex 1.50Beta6
#
DISCID=9b0ab90c
DTITLE=Swing Cajun - Go West
DYEAR=1900
DGENRE=Cajun
TTITLE0=Toot+Toot
TTITLE1=Mamuli Twostep
TTITLE2=T'es petite et t'es mignonne
TTITLE3=J'voudrais la voir encore
TTITLE4=Kolinda Cannonball
TTITLE5=Twostep Cajun
TTITLE6=Everybody Got To Cry
TTITLE7=La porte en arriere
TTITLE8=Mystery Train
TTITLE9=Papy Johnny
TTITLE10=Funky Ducks
TTITLE11=J'ai fais serment
EXTD=
EXTT0=
EXTT1=
EXTT2=
EXTT3=
EXTT4=
EXTT5=
EXTT6=
EXTT7=
EXTT8=
EXTT9=
EXTT10=
EXTT11=
PLAYORDER=
